<mxfile host="65bd71144e" modified="2021-01-25T11:37:17.220Z" agent="5.0 (Windows NT 10.0; Win64; x64) AppleWebKit/537.36 (KHTML, like Gecko) Code/1.52.1 Chrome/83.0.4103.122 Electron/9.3.5 Safari/537.36" etag="BOFwGLPhjfu8nz5ETzm6" version="13.10.0" type="embed">
    <diagram id="L26EetaDWAB7zf-NUEss" name="Page-1">
        <mxGraphModel dx="314" dy="605" grid="1" gridSize="10" guides="1" tooltips="1" connect="1" arrows="1" fold="1" page="1" pageScale="1" pageWidth="827" pageHeight="1169" background="#ffffff" math="0" shadow="0">
            <root>
                <mxCell id="0"/>
                <mxCell id="1" parent="0"/>
                <mxCell id="Ajs0VFhhcyNC2q7kz4mB-1" value="BowlingScoreCard" style="swimlane;fontStyle=0;childLayout=stackLayout;horizontal=1;startSize=26;fillColor=#f5f5f5;horizontalStack=0;resizeParent=1;resizeParentMax=0;resizeLast=0;collapsible=1;marginBottom=0;strokeColor=#666666;fontColor=#333333;" parent="1" vertex="1">
                    <mxGeometry x="390" y="340" width="140" height="140" as="geometry"/>
                </mxCell>
                <mxCell id="Ajs0VFhhcyNC2q7kz4mB-2" value="getScoreCard()&#10;strike()&#10;spare()&#10;checkValidScore()&#10;openFrame()&#10;getScoreGame()" style="text;strokeColor=#666666;fillColor=#f5f5f5;align=left;verticalAlign=top;spacingLeft=4;spacingRight=4;overflow=hidden;rotatable=0;points=[[0,0.5],[1,0.5]];portConstraint=eastwest;fontColor=#333333;" parent="Ajs0VFhhcyNC2q7kz4mB-1" vertex="1">
                    <mxGeometry y="26" width="140" height="114" as="geometry"/>
                </mxCell>
                <mxCell id="Ajs0VFhhcyNC2q7kz4mB-5" value="App" style="swimlane;fontStyle=0;childLayout=stackLayout;horizontal=1;startSize=26;fillColor=#f5f5f5;horizontalStack=0;resizeParent=1;resizeParentMax=0;resizeLast=0;collapsible=1;marginBottom=0;strokeColor=#666666;fontColor=#333333;" parent="1" vertex="1">
                    <mxGeometry x="390" y="160" width="140" height="70" as="geometry"/>
                </mxCell>
                <mxCell id="Ajs0VFhhcyNC2q7kz4mB-7" value="execute_bowling()&#10;reload_program()" style="text;strokeColor=#666666;fillColor=#f5f5f5;align=left;verticalAlign=top;spacingLeft=4;spacingRight=4;overflow=hidden;rotatable=0;points=[[0,0.5],[1,0.5]];portConstraint=eastwest;fontColor=#333333;" parent="Ajs0VFhhcyNC2q7kz4mB-5" vertex="1">
                    <mxGeometry y="26" width="140" height="44" as="geometry"/>
                </mxCell>
                <mxCell id="Ajs0VFhhcyNC2q7kz4mB-9" value="Use" style="endArrow=open;endSize=12;dashed=1;html=1;exitX=0.478;exitY=0.983;exitDx=0;exitDy=0;exitPerimeter=0;entryX=0.5;entryY=0;entryDx=0;entryDy=0;fillColor=#f5f5f5;strokeColor=#666666;" parent="1" source="Ajs0VFhhcyNC2q7kz4mB-7" target="Ajs0VFhhcyNC2q7kz4mB-1" edge="1">
                    <mxGeometry width="160" relative="1" as="geometry">
                        <mxPoint x="380" y="310" as="sourcePoint"/>
                        <mxPoint x="540" y="310" as="targetPoint"/>
                    </mxGeometry>
                </mxCell>
            </root>
        </mxGraphModel>
    </diagram>
</mxfile>